<svg width="25" height="24" viewBox="0 0 25 24" fill="none" xmlns="http://www.w3.org/2000/svg">
<path d="M12.0454 8V12L15.0567 15M21.0791 12C21.0791 13.1819 20.8455 14.3522 20.3915 15.4442C19.9375 16.5361 19.2721 17.5282 18.4332 18.364C17.5944 19.1997 16.5985 19.8626 15.5025 20.3149C14.4065 20.7672 13.2317 21 12.0454 21C10.8591 21 9.6844 20.7672 8.58838 20.3149C7.49236 19.8626 6.49649 19.1997 5.65763 18.364C4.81877 17.5282 4.15336 16.5361 3.69937 15.4442C3.24538 14.3522 3.01172 13.1819 3.01172 12C3.01172 9.61305 3.96348 7.32387 5.65763 5.63604C7.35178 3.94821 9.64954 3 12.0454 3C14.4413 3 16.7391 3.94821 18.4332 5.63604C20.1274 7.32387 21.0791 9.61305 21.0791 12Z" stroke="#70757a" strokeWidth="2" strokeLinecap="round" strokeLinejoin="round"/>
</svg>
